<?xml version="1.0" standalone="no"?>
<!DOCTYPE svg PUBLIC "-//W3C//DTD SVG 1.1//EN" "http://www.w3.org/Graphics/SVG/1.1/DTD/svg11.dtd" >
<svg xmlns="http://www.w3.org/2000/svg">
<metadata></metadata>
<defs>
<font id="edmondsansmedium" horiz-adv-x="1105" >
<font-face units-per-em="2048" ascent="1536" descent="-512" />
<missing-glyph horiz-adv-x="614" />
<glyph unicode="&#xfb01;" horiz-adv-x="1071" d="M37 778v189h149v235q0 163 95.5 262t240.5 99q136 0 219 -80l-98 -162q-38 47 -104 47q-63 0 -99.5 -45t-36.5 -129v-227h222v-189h-222v-778h-217v778h-149zM700 1221q0 61 45 106t107 45q63 0 108.5 -44.5t45.5 -106.5q0 -63 -45.5 -108.5t-108.5 -45.5 q-62 0 -107 45.5t-45 108.5zM743 0v967h218v-967h-218z" />
<glyph unicode="&#xfb02;" horiz-adv-x="962" d="M47 778v189h150v235q0 163 95 262t240 99q137 0 220 -80l-99 -162q-38 47 -104 47q-63 0 -99 -44.5t-36 -129.5v-227h221v-189h-221v-778h-217v778h-150zM836 0v1536h217v-1536h-217z" />
<glyph horiz-adv-x="2048" />
<glyph horiz-adv-x="2048" />
<glyph unicode="&#xd;" horiz-adv-x="2048" />
<glyph unicode=" "  horiz-adv-x="614" />
<glyph unicode="&#x09;" horiz-adv-x="614" />
<glyph unicode="&#xa0;" horiz-adv-x="614" />
<glyph unicode="!" horiz-adv-x="520" d="M109 133q0 62 45 107t106 45q63 0 108.5 -45t45.5 -107q0 -63 -45.5 -108t-108.5 -45q-62 0 -106.5 45t-44.5 108zM150 1434h219l-11 -979h-198z" />
<glyph unicode="&#x22;" horiz-adv-x="501" d="M43 1434h182l-10 -320h-162zM276 1434h183l-10 -320h-162z" />
<glyph unicode="#" horiz-adv-x="1212" d="M43 442v183h260v245h-260v183h260v381h182v-381h242v381h182v-381h262v-183h-262v-245h262v-183h-262v-442h-182v442h-242v-442h-182v442h-260zM485 625h242v245h-242v-245z" />
<glyph unicode="$" horiz-adv-x="1017" d="M70 270l186 107q35 -94 102.5 -146.5t151.5 -52.5q98 0 153.5 60.5t55.5 156.5q0 52 -30.5 101.5t-79.5 92.5t-107.5 86.5t-117.5 91t-108 99t-79.5 117.5t-30.5 139q0 119 72 206t182 114v155h186v-155q133 -35 209 -152l-158 -129q-63 96 -143 96q-57 0 -94 -39 t-37 -98q0 -41 30.5 -83t79.5 -81t108 -82t118.5 -93t108.5 -105t79.5 -127.5t30.5 -151.5q0 -155 -94.5 -267t-243.5 -140v-146h-186v144q-118 21 -209 92.5t-135 189.5z" />
<glyph unicode="%" horiz-adv-x="1501" d="M55 1141q0 125 86.5 211t210.5 86q123 0 209 -86.5t86 -210.5q0 -123 -86 -209t-209 -86q-124 0 -210.5 86t-86.5 209zM131 0l983 1434h227l-983 -1434h-227zM221 1141q0 -54 38 -91.5t93 -37.5q54 0 92.5 37.5t38.5 91.5q0 55 -38.5 93t-92.5 38q-56 0 -93.5 -38 t-37.5 -93zM834 291q0 123 86 209t210 86q123 0 209 -86t86 -209q0 -124 -86 -210.5t-209 -86.5q-124 0 -210 86t-86 211zM999 291q0 -55 37.5 -93t93.5 -38q54 0 93 38t39 93q0 54 -39 92.5t-93 38.5q-55 0 -93 -38.5t-38 -92.5z" />
<glyph unicode="&#x26;" horiz-adv-x="1263" d="M29 426q0 273 327 438q-4 4 -4 6q-102 126 -102 281q0 125 92 214t225 89q71 0 127.5 -24t91 -64.5t52.5 -90.5t18 -104q0 -208 -211 -335l252 -312q55 152 72 303h205q-33 -246 -148 -462l207 -254l-164 -129q-98 117 -168 206q-179 -208 -405 -208q-123 0 -228 51 t-172 154.5t-67 240.5zM242 434q0 -120 72.5 -191t189.5 -71q160 0 284 152l-327 411q-105 -65 -162 -136.5t-57 -164.5zM457 1155q0 -87 88 -197q112 75 112 203q0 45 -25.5 77t-70.5 32q-48 0 -76 -33t-28 -82z" />
<glyph unicode="'" horiz-adv-x="284" d="M51 1434h182l-10 -320h-162z" />
<glyph unicode="(" horiz-adv-x="561" d="M57 717q0 241 68.5 456t202.5 373l166 -100q-108 -140 -164 -330t-56 -405q0 -214 56.5 -406.5t163.5 -331.5q-162 -95 -164 -96q-134 163 -203.5 381t-69.5 459z" />
<glyph unicode=")" horiz-adv-x="561" d="M55 -27q107 138 162 328.5t55 400.5q0 219 -54.5 412t-162.5 332l166 100q134 -158 202.5 -373t68.5 -456t-69.5 -459t-203.5 -381q-2 1 -164 96z" />
<glyph unicode="*" horiz-adv-x="720" d="M45 1077q98 52 166 90l-166 90q12 21 37 67t39 69q28 -16 82 -51.5t82 -51.5l-4 195h155q-6 -192 -6 -195q31 18 87 53.5t79 49.5q14 -23 39 -69t37 -67l-166 -90l166 -90l-74 -135q-86 50 -168 102l6 -194h-155l6 194q-135 -83 -168 -102z" />
<glyph unicode="+" horiz-adv-x="907" d="M82 692v172h285v287h172v-287h286v-172h-286v-284h-172v284h-285z" />
<glyph unicode="," horiz-adv-x="505" d="M90 135q0 60 44.5 105t109.5 45q84 0 128 -59t44 -150q0 -106 -64.5 -204t-165.5 -134q-58 93 -67 110q35 19 61.5 44t37 42t19.5 36l9 18q-64 0 -110 41.5t-46 105.5z" />
<glyph unicode="-" horiz-adv-x="661" d="M82 487v172h498v-172h-498z" />
<glyph unicode="." horiz-adv-x="522" d="M109 133q0 62 45 107t106 45q63 0 108.5 -45t45.5 -107q0 -63 -45.5 -108t-108.5 -45q-62 0 -106.5 45t-44.5 108z" />
<glyph unicode="/" horiz-adv-x="727" d="M-37 -205l574 1843h223l-574 -1843h-223z" />
<glyph unicode="0" horiz-adv-x="1388" d="M76 717q0 157 41 291t118 233.5t195 156t264 56.5q194 0 336 -97.5t212.5 -263t70.5 -376.5q0 -123 -25.5 -233.5t-77.5 -202.5t-125.5 -159t-173.5 -104.5t-217 -37.5t-217 37.5t-173 104.5t-125 159t-77.5 202.5t-25.5 233.5zM291 717q0 -150 43.5 -268.5t136.5 -191.5 t223 -73t223.5 73.5t137 192t43.5 267.5q0 150 -43 267.5t-136.5 190t-224.5 72.5q-99 0 -177 -41.5t-127 -114t-74 -167.5t-25 -207z" />
<glyph unicode="1" horiz-adv-x="833" d="M92 1292l287 142h166v-1239h194v-195h-606v195h195v1001l-152 -78z" />
<glyph unicode="2" horiz-adv-x="1134" d="M117 0v172q14 9 38 26t93.5 71t132.5 110t139.5 137.5t132 159.5t93.5 170t38 174q0 103 -60.5 165t-148.5 62q-89 0 -149.5 -58.5t-60.5 -158.5q0 -80 24 -145l-205 -62q-5 8 -11.5 23.5t-18 66t-11.5 105.5q0 131 61.5 231t160 150.5t215.5 50.5q181 0 303.5 -111 t122.5 -309q0 -99 -39 -205t-94 -191.5t-133.5 -175t-139.5 -147t-129 -114.5q114 14 211 14h336v-211h-901z" />
<glyph unicode="3" horiz-adv-x="1097" d="M74 260l180 88q5 -14 15 -32.5t33 -45t52 -48t75 -37t99 -15.5q120 0 190 81t70 195q0 110 -67.5 182t-185.5 72h-68v174q91 0 151 60t60 158q0 70 -45 116.5t-103 46.5q-60 0 -101 -40.5t-42 -112.5h-213q0 86 30.5 155t82 111.5t114.5 65t131 22.5q93 0 173 -37.5 t133 -118t53 -190.5q0 -196 -154 -297q131 -36 200 -139t69 -230q0 -198 -128 -331t-343 -133q-93 0 -172.5 23.5t-128.5 57t-86 75t-53 72t-21 52.5z" />
<glyph unicode="4" horiz-adv-x="1095" d="M51 332v151l608 951h172v-914h191v-188h-191v-332h-217v332h-563zM289 520h325v504z" />
<glyph unicode="5" horiz-adv-x="1191" d="M76 287q108 55 184 96q8 -21 30 -51t59.5 -66t97.5 -61t128 -25q147 0 229.5 92.5t82.5 221.5q0 57 -19.5 110.5t-55.5 97t-94.5 69.5t-129.5 26q-89 0 -149 -36t-79 -67l-163 94v646h739v-205h-539v-307q92 55 215 55q124 0 221.5 -40.5t156 -110t88.5 -154.5t30 -180 q0 -102 -34 -193.5t-98 -163t-166.5 -113.5t-229.5 -42q-95 0 -179 24.5t-138.5 60t-96.5 79.5t-62.5 79.5t-27.5 63.5z" />
<glyph unicode="6" horiz-adv-x="1181" d="M100 565q0 150 40.5 290t119.5 260.5t206.5 211t289.5 133.5l67 -186q-78 -22 -147 -57.5t-116.5 -75.5t-86.5 -83t-62.5 -82t-40 -70t-22.5 -50l-6 -18l2 -2q59 70 135.5 102.5t184.5 32.5q104 0 190.5 -39.5t142 -106.5t85.5 -152.5t30 -180.5q0 -136 -57 -250.5 t-172.5 -187t-268.5 -72.5q-164 0 -282 79t-175 209t-57 295zM322 479q0 -82 31 -151t97.5 -114.5t157.5 -45.5q87 0 152.5 47t97 118t31.5 152q0 127 -73.5 216.5t-205.5 89.5q-135 0 -211.5 -91.5t-76.5 -220.5z" />
<glyph unicode="7" horiz-adv-x="999" d="M82 1223v211h829v-170q-14 -23 -38 -65t-85 -177t-107 -275t-82.5 -345t-33.5 -402h-223q0 159 24.5 323t60 292.5t84 254.5t86.5 205t77 148h-592z" />
<glyph unicode="8" horiz-adv-x="1153" d="M94 416q0 128 67 234.5t193 160.5q-70 44 -110.5 117t-40.5 168q0 68 23.5 131t68.5 114.5t118.5 82t164.5 30.5q90 0 162.5 -30.5t118 -81t69.5 -113.5t24 -131q0 -191 -151 -287q126 -54 192 -160t66 -233q0 -84 -30.5 -161t-88 -139.5t-151.5 -100t-211 -37.5 q-118 0 -212.5 37.5t-152.5 99.5t-88.5 139t-30.5 160zM309 434q0 -111 71 -189.5t198 -78.5q124 0 194 78.5t70 189.5t-69.5 192t-194.5 81q-126 0 -197.5 -81t-71.5 -192zM408 1085q0 -83 44.5 -141.5t125.5 -58.5q80 0 122.5 58t42.5 142q0 80 -43.5 137.5t-121.5 57.5 q-79 0 -124.5 -57.5t-45.5 -137.5z" />
<glyph unicode="9" horiz-adv-x="1214" d="M94 948q0 136 57 251t172.5 188t268.5 73q123 0 222 -46t162 -126t96.5 -185.5t33.5 -228.5q0 -150 -40.5 -289.5t-119 -260t-206 -210.5t-289.5 -132l-68 184q78 22 147 57.5t116.5 75.5t86.5 83t62.5 82t40 70t22.5 50l6 18l-2 2q-59 -70 -135 -102.5t-184 -32.5 q-138 0 -242.5 68.5t-155.5 176t-51 234.5zM317 954q0 -82 30 -149.5t95 -111.5t154 -44q135 0 212 92t77 220q0 127 -76 219t-211 92q-129 0 -205 -95.5t-76 -222.5z" />
<glyph unicode=":" horiz-adv-x="520" d="M109 133q0 62 45 107t106 45q63 0 108.5 -45t45.5 -107q0 -63 -45.5 -108t-108.5 -45q-62 0 -106.5 45t-44.5 108zM109 692q0 62 45 107t106 45q63 0 108.5 -45t45.5 -107q0 -63 -45.5 -108t-108.5 -45q-62 0 -106.5 45t-44.5 108z" />
<glyph unicode=";" horiz-adv-x="507" d="M109 692q0 62 45 107t106 45q63 0 108.5 -45t45.5 -107q0 -63 -45.5 -108t-108.5 -45q-62 0 -106.5 45t-44.5 108zM117 141q0 55 40 95t99 40q76 0 117 -53t41 -135q0 -97 -58.5 -186.5t-150.5 -120.5q-4 7 -27.5 43t-34.5 57q22 12 40 26t29 26t20.5 25.5t13.5 22 t8 17.5t4 10q-57 0 -99 37.5t-42 95.5z" />
<glyph unicode="&#x3c;" horiz-adv-x="665" d="M51 774l426 426q18 -19 39.5 -40.5t47.5 -47t40 -39.5l-237 -237q-9 -9 -23 -22.5t-23.5 -23t-15.5 -16.5l299 -297l-127 -129z" />
<glyph unicode="=" horiz-adv-x="880" d="M123 522v172h635v-172h-635zM123 860v172h635v-172h-635z" />
<glyph unicode="&#x3e;" horiz-adv-x="663" d="M59 477l240 238q45 45 61 59l-301 299l129 127l426 -426l-426 -426z" />
<glyph unicode="?" horiz-adv-x="970" d="M70 1032q0 98 37.5 180t99 133.5t138.5 80t159 28.5q188 0 304 -106.5t116 -286.5q0 -164 -152 -320q-34 -35 -47.5 -49.5t-42 -47t-40.5 -54.5t-27.5 -54.5t-20 -66t-2.5 -70.5h-223q-4 69 10.5 129.5t52 118t63 88t78.5 87.5q7 8 11 12q121 125 121 225q0 86 -57 137 t-144 51q-97 0 -159 -57t-62 -156q0 -57 20 -119l-205 -59q-28 53 -28 176zM338 133q0 62 45 107t106 45q63 0 108.5 -45t45.5 -107q0 -63 -45.5 -108t-108.5 -45q-62 0 -106.5 45t-44.5 108z" />
<glyph unicode="@" horiz-adv-x="1714" d="M57 676q0 165 62.5 315t170 259.5t258 174t318.5 64.5q170 0 318.5 -64.5t252 -174.5t163 -259t59.5 -315q0 -114 -31.5 -204.5t-83.5 -144.5t-113.5 -82t-125.5 -28q-74 0 -135.5 38t-88.5 105q-100 -124 -266 -124q-92 0 -166 37t-120 98.5t-70.5 137t-24.5 157.5 q0 83 24.5 159.5t70.5 138t120.5 98t167.5 36.5q147 0 242 -105v84h194v-602q0 -55 25 -86t63 -31q65 0 118.5 84t53.5 234q0 137 -48.5 260.5t-132.5 215t-205.5 145t-260.5 53.5t-260.5 -53.5t-205.5 -144.5t-132.5 -214.5t-48.5 -261.5q0 -143 50 -268.5t136 -214 t206 -140t255 -51.5q234 0 404 137l86 -114q-220 -164 -490 -164q-169 0 -319 63t-257.5 171t-170 259.5t-62.5 321.5zM633 666q0 -104 61.5 -179t169.5 -75q94 0 147.5 75.5t53.5 180.5q0 104 -53 179t-148 75q-108 0 -169.5 -75.5t-61.5 -180.5z" />
<glyph unicode="A" horiz-adv-x="1208" d="M25 0l462 1434h232l463 -1434h-232l-119 397h-454l-119 -397h-233zM436 594h336l-129 434q-29 92 -39 158q-7 -53 -39 -162z" />
<glyph unicode="B" horiz-adv-x="1196" d="M184 0v1434h387q171 0 268 -95t97 -249q0 -170 -143 -256q135 -48 212.5 -152t77.5 -244q0 -94 -32 -172.5t-96 -138.5t-168.5 -93.5t-241.5 -33.5h-361zM401 184h197q126 0 196 74.5t70 181.5q0 104 -71.5 182t-192.5 78h-199v-516zM401 895h121q99 0 150 54t51 141 q0 73 -43.5 123.5t-128.5 50.5h-150v-369z" />
<glyph unicode="C" horiz-adv-x="1447" d="M86 717q0 199 97.5 368t266.5 268t369 99q318 0 535 -233l-160 -146q-169 172 -377 172q-141 0 -259 -71t-185.5 -192t-67.5 -265q0 -145 67.5 -267t185.5 -193t259 -71q211 0 383 179l162 -142q-219 -243 -543 -243q-201 0 -370 98.5t-266 268t-97 370.5z" />
<glyph unicode="D" horiz-adv-x="1425" d="M184 0v1434h400q174 0 308 -40t231.5 -123.5t148.5 -218.5t51 -317q0 -173 -50 -312.5t-140 -231.5t-215 -141.5t-275 -49.5h-459zM403 195h236q215 0 340 144t125 398q0 270 -130.5 385t-389.5 115h-181v-1042z" />
<glyph unicode="E" horiz-adv-x="1136" d="M184 0v1434h820v-199h-603v-385h453v-197h-453v-456h603v-197h-820z" />
<glyph unicode="F" horiz-adv-x="991" d="M164 0v1434h760v-203h-543v-381h405v-203h-405v-649z" />
<glyph unicode="G" horiz-adv-x="1525" d="M96 717q0 199 97.5 368t266.5 268t369 99q318 0 535 -233l-160 -146q-72 78 -170.5 125t-206.5 47q-141 0 -259 -71t-185.5 -192t-67.5 -265q0 -145 68.5 -267.5t186.5 -193t257 -70.5q215 0 338 123v279h-336v190h543v-555q-219 -243 -543 -243q-201 0 -370 98.5 t-266 268t-97 370.5z" />
<glyph unicode="H" horiz-adv-x="1290" d="M164 0v1434h219v-527h524v527h219v-1434h-219v705h-524v-705h-219z" />
<glyph unicode="I" horiz-adv-x="794" d="M113 0v182h176v1067h-176v185h569v-185h-176v-1067h176v-182h-569z" />
<glyph unicode="J" horiz-adv-x="933" d="M8 207l166 108q69 -131 191 -131q81 0 130.5 62t49.5 162v1026h217v-1020q0 -193 -101 -312.5t-292 -119.5q-261 0 -361 225z" />
<glyph unicode="K" horiz-adv-x="1193" d="M184 0v1434h217v-510q0 -17 -1 -38t-2 -35.5t-1 -16.5q2 7 16 30.5t29 42.5l379 527h244l-379 -527l473 -907h-250l-331 651l-35 80q-2 0 -8.5 -11t-18.5 -30.5t-22 -34.5l-93 -123v-532h-217z" />
<glyph unicode="L" horiz-adv-x="970" d="M164 0v1434h217v-1229h539v-205h-756z" />
<glyph unicode="M" horiz-adv-x="1873" d="M123 0l196 1434h256l334 -975q9 -28 17 -64.5t8 -42.5q2 2 5 19t8 42.5t11 43.5l338 977h256l199 -1434h-233l-111 967q-14 106 -14 163q-7 -62 -39 -157l-332 -973h-172l-334 971q-9 25 -17 55t-12.5 51t-8 39t-3.5 19q0 -71 -10 -168l-111 -967h-231z" />
<glyph unicode="N" horiz-adv-x="1314" d="M184 0v1434h211l484 -678q31 -48 45 -76v6q-1 6 -1.5 15.5t-1 20.5t-1 24t-0.5 24v664h210v-1434h-210v350l-484 662q-16 20 -32.5 46.5t-18.5 33.5l1 -6q0 -7 1 -17.5t2 -22.5t1.5 -26t0.5 -25v-995h-207z" />
<glyph unicode="O" horiz-adv-x="1644" d="M86 717q0 198 98.5 367.5t268.5 268.5t370 99q148 0 284.5 -58.5t235 -157.5t157.5 -235t59 -284q0 -200 -99.5 -370t-269 -268.5t-367.5 -98.5q-150 0 -286.5 58t-235.5 157t-157 235.5t-58 286.5zM309 717q0 -231 146 -382t368 -151q144 0 261.5 69t184 191.5 t66.5 272.5q0 229 -145.5 379.5t-366.5 150.5q-222 0 -368 -151t-146 -379z" />
<glyph unicode="P" horiz-adv-x="1189" d="M184 0v1434h469q212 0 333.5 -124.5t121.5 -324.5q0 -201 -123.5 -323.5t-331.5 -122.5h-252v-539h-217zM401 739h230q130 0 197 65.5t67 180.5q0 116 -68.5 182t-195.5 66h-230v-494z" />
<glyph unicode="Q" horiz-adv-x="1644" d="M86 717q0 198 98.5 367.5t268.5 268.5t370 99q148 0 284.5 -58.5t235 -157.5t157.5 -235t59 -284q0 -262 -173 -473l152 -150l-125 -123l-153 152q-195 -143 -437 -143q-150 0 -286.5 58t-235.5 157t-157 235.5t-58 286.5zM309 717q0 -231 146 -382t368 -151 q161 0 289 86l-160 160l125 125l160 -160q98 141 98 322q0 229 -145.5 379.5t-366.5 150.5q-222 0 -368 -151t-146 -379z" />
<glyph unicode="R" horiz-adv-x="1234" d="M184 0v1434h469q212 0 333.5 -124.5t121.5 -324.5q0 -136 -58.5 -238.5t-164.5 -156.5l258 -590h-238q-88 200 -227 539h-25h-252v-539h-217zM401 739h230q130 0 197 65.5t67 180.5q0 116 -68.5 182t-195.5 66h-230v-494z" />
<glyph unicode="S" horiz-adv-x="995" d="M61 270l187 107q35 -94 102.5 -146.5t151.5 -52.5q98 0 153.5 60.5t55.5 156.5q0 52 -30.5 101.5t-79.5 92.5t-107.5 86.5t-117.5 91t-108 99t-79.5 117.5t-30.5 139q0 144 101.5 238t240.5 94q98 0 177.5 -43t129.5 -121l-158 -129q-63 96 -143 96q-57 0 -94 -39 t-37 -98q0 -41 30.5 -83t79.5 -81t108 -82t118.5 -93t108.5 -105t79.5 -127.5t30.5 -151.5q0 -179 -123 -298t-307 -119q-94 0 -178.5 30.5t-154.5 97.5t-106 162z" />
<glyph unicode="T" horiz-adv-x="903" d="M41 1231v203h821v-203h-301v-1231h-219v1231h-301z" />
<glyph unicode="U" horiz-adv-x="1288" d="M172 504v930h219v-965q0 -130 73 -209.5t179 -79.5q107 0 180.5 79.5t73.5 209.5v965h219v-930q0 -109 -25.5 -197.5t-69 -148.5t-104 -100.5t-129 -59t-145.5 -18.5q-76 0 -144 18.5t-128.5 59t-104 100.5t-69 148.5t-25.5 197.5z" />
<glyph unicode="V" horiz-adv-x="1198" d="M20 1434h232l283 -936q32 -104 65 -254q14 84 64 254l280 936h234l-463 -1434h-232z" />
<glyph unicode="W" horiz-adv-x="1878" d="M20 1434h220l393 -1057q31 -82 39 -137q18 82 39 137l120 334l-272 723h211l129 -353q32 -86 43 -151q4 52 41 151l129 353h209q-46 -121 -136 -361.5t-136 -361.5l127 -334q18 -49 38 -137q3 38 39 137l389 1057h218l-539 -1434h-205l-147 395q-12 29 -29 113 q0 -1 -5.5 -20.5t-13 -46t-14.5 -46.5l-145 -395h-205z" />
<glyph unicode="X" horiz-adv-x="1181" d="M61 0l396 782l-336 652h237l189 -383q37 -76 37 -90q0 14 39 90l190 383h238l-338 -652l407 -782h-233l-264 518q-22 40 -39 90l-37 -90l-252 -518h-234z" />
<glyph unicode="Y" horiz-adv-x="1175" d="M41 1434h250l248 -430q10 -19 20 -39.5t16 -35t7 -16.5q0 3 5 16t15.5 34.5t22.5 42.5l258 428h252l-445 -723v-711h-217v713z" />
<glyph unicode="Z" horiz-adv-x="1204" d="M121 0v170l629 993l47 70q-47 -2 -86 -2h-559v203h915v-172l-633 -1002q-9 -15 -20 -30.5t-17.5 -23t-5.5 -7.5q35 4 72 4h604v-203h-946z" />
<glyph unicode="[" horiz-adv-x="464" d="M92 -205v1843h359v-196h-140v-1450h140v-197h-359z" />
<glyph unicode="\" horiz-adv-x="724" d="M-37 1638h223l574 -1843h-223z" />
<glyph unicode="]" horiz-adv-x="464" d="M14 -23h142v1477h-142v184h359v-1843h-359v182z" />
<glyph unicode="^" horiz-adv-x="954" d="M39 1057l352 352h146l354 -352l-127 -127l-299 299l-299 -299z" />
<glyph unicode="_" horiz-adv-x="1056" d="M-10 -92h1083v-162h-1083v162z" />
<glyph unicode="`" horiz-adv-x="382" d="M-66 1280l119 127l307 -287l-116 -127z" />
<glyph unicode="a" horiz-adv-x="1120" d="M92 264q0 138 112 229t322 91q88 0 246 -31v49q0 91 -60 147t-159 56q-65 0 -123.5 -30.5t-95.5 -84.5l-154 117q5 8 14 20.5t43 45.5t74 58t107.5 45.5t142.5 20.5q193 0 306.5 -107t113.5 -282v-354q0 -26 15.5 -41.5t43.5 -15.5h29v-197h-59q-166 0 -215 170 q-53 -81 -146.5 -135.5t-226.5 -54.5q-156 0 -243 83.5t-87 200.5zM311 276q0 -54 41 -88t117 -34q124 0 203 75.5t98 180.5q-113 24 -209 24q-113 0 -181.5 -44t-68.5 -114z" />
<glyph unicode="b" horiz-adv-x="1157" d="M137 0v1536h211v-653q0 -9 -4 -41q111 145 299 145q190 0 310 -141.5t120 -358.5q0 -220 -118.5 -363.5t-309.5 -143.5q-94 0 -173 42.5t-134 120.5q4 -62 4 -143h-205zM346 483q0 -138 69 -227.5t185 -89.5q114 0 188 90.5t74 228.5t-73.5 226t-188.5 88 q-117 0 -185.5 -86.5t-68.5 -229.5z" />
<glyph unicode="c" horiz-adv-x="1046" d="M96 485q0 139 64 254.5t177 182.5t251 67q211 0 362 -164q-2 -2 -143 -137q-97 107 -217 107q-125 0 -203 -87.5t-78 -222.5q0 -137 78.5 -223t202.5 -86q142 0 227 123l156 -123q-144 -194 -383 -194q-211 0 -352.5 145.5t-141.5 357.5z" />
<glyph unicode="d" horiz-adv-x="1148" d="M76 487q0 217 120 358.5t310 141.5q188 0 299 -141q-4 24 -4 37v653h211v-1536h-205q0 79 4 141q-56 -77 -135 -119t-172 -42q-191 0 -309.5 143.5t-118.5 363.5zM287 485q0 -138 74 -228.5t188 -90.5q116 0 185 89.5t69 227.5q0 143 -68.5 229.5t-185.5 86.5 q-115 0 -188.5 -88t-73.5 -226z" />
<glyph unicode="e" horiz-adv-x="1077" d="M72 485q0 103 34.5 195t96 160.5t152.5 108.5t198 40q114 0 202.5 -40t142 -110t81 -159.5t27.5 -194.5v-53h-721q14 -134 94.5 -204t193.5 -70q179 0 275 141l145 -111q-52 -69 -105 -111.5t-134.5 -69.5t-188.5 -27q-218 0 -355.5 143t-137.5 362zM291 575h502 q-14 109 -78.5 172.5t-163.5 63.5q-97 0 -168 -61t-92 -175z" />
<glyph unicode="f" horiz-adv-x="694" d="M47 778v189h150v235q0 163 95 262t240 99q137 0 220 -80l-99 -162q-38 47 -104 47q-63 0 -99 -44.5t-36 -129.5v-227h221v-189h-221v-778h-217v778h-150z" />
<glyph unicode="g" horiz-adv-x="1110" d="M66 -307q0 110 75 203q-41 55 -41 137q0 70 33 137t94 113q-108 114 -108 286q0 118 59 214t159.5 150t221.5 54q118 0 217 -55l133 147l135 -129l-135 -131q86 -114 86 -250q0 -178 -126.5 -296.5t-309.5 -118.5q-113 0 -203 41q-61 -58 -61 -125q0 -39 26.5 -63.5 t79.5 -24.5q42 0 150 22.5t182 22.5q155 0 245.5 -86.5t90.5 -210.5q0 -72 -32.5 -137.5t-93.5 -117.5t-159 -83t-219 -31q-239 0 -369 96t-130 236zM250 -270q0 -76 81 -128.5t234 -52.5q136 0 218.5 55.5t82.5 135.5q0 45 -37 76.5t-100 31.5q-51 0 -171.5 -25.5 t-197.5 -25.5q-43 0 -88 10q-22 -39 -22 -77zM324 569q0 -107 67 -174t168 -67q103 0 167.5 67t64.5 174q0 110 -64.5 178t-167.5 68q-105 0 -170 -68.5t-65 -177.5z" />
<glyph unicode="h" horiz-adv-x="1167" d="M137 0v1536h211v-635q0 -37 -6 -80q54 76 134.5 122t178.5 46q169 0 272 -113.5t103 -316.5v-559h-213v551q0 124 -62 192t-163 68q-96 0 -167 -76.5t-77 -185.5v-549h-211z" />
<glyph unicode="i" horiz-adv-x="505" d="M100 1241q0 61 45 106.5t107 45.5q63 0 108.5 -45t45.5 -107q0 -63 -45.5 -108.5t-108.5 -45.5q-62 0 -107 45.5t-45 108.5zM141 0v967h217v-967h-217z" />
<glyph unicode="j" horiz-adv-x="571" d="M-248 -412l164 111q30 -123 150 -123q61 0 101 48.5t40 125.5l-2 1217h219v-1223q0 -164 -98 -270.5t-254 -106.5q-112 0 -195.5 56.5t-124.5 164.5zM162 1231q0 61 45 106t106 45q63 0 108.5 -44.5t45.5 -106.5q0 -63 -45.5 -108.5t-108.5 -45.5q-62 0 -106.5 45.5 t-44.5 108.5z" />
<glyph unicode="k" horiz-adv-x="1026" d="M137 0v1536h217v-936l316 369h237l-313 -361l428 -608h-234l-325 459l-109 -125v-334h-217z" />
<glyph unicode="l" horiz-adv-x="491" d="M137 0v1536h217v-1536h-217z" />
<glyph unicode="m" horiz-adv-x="1662" d="M137 0v967h211v-58q0 -36 -6 -73q48 73 119.5 113t156.5 40q200 0 279 -170q48 80 128 125t179 45q146 0 234 -93.5t88 -268.5v-627h-211v616q0 88 -48.5 141.5t-129.5 53.5q-85 0 -143 -65t-58 -175v-571h-211v621q0 86 -47.5 136t-126.5 50q-83 0 -141.5 -60.5 t-61.5 -164.5v-582h-211z" />
<glyph unicode="n" horiz-adv-x="1167" d="M137 0v967h211v-66q0 -37 -6 -80q54 76 134.5 122t178.5 46q169 0 272 -113.5t103 -316.5v-559h-213v551q0 124 -62.5 192t-160.5 68q-102 0 -172.5 -71.5t-73.5 -180.5v-559h-211z" />
<glyph unicode="o" horiz-adv-x="1146" d="M76 485q0 212 144 358t353 146q136 0 250.5 -66.5t181 -182.5t66.5 -255q0 -105 -39.5 -199t-106 -161t-158.5 -106t-194 -39q-138 0 -252 66.5t-179.5 182.5t-65.5 256zM285 485q0 -138 81 -227.5t207 -89.5q128 0 207.5 89t79.5 228q0 138 -79.5 227t-207.5 89 q-129 0 -208.5 -89.5t-79.5 -226.5z" />
<glyph unicode="p" horiz-adv-x="1155" d="M137 -512v1479h211v-84q0 -5 -1 -17t-1 -18q54 66 131 102.5t166 36.5q190 0 310 -141.5t120 -358.5q0 -220 -118.5 -363.5t-309.5 -143.5q-92 0 -171 41.5t-136 115.5q4 -70 4 -131v-518h-205zM346 483q0 -138 69 -227.5t185 -89.5q114 0 188 90.5t74 228.5t-73.5 226 t-188.5 88q-117 0 -185.5 -86.5t-68.5 -229.5z" />
<glyph unicode="q" horiz-adv-x="1155" d="M92 487q0 217 119 358.5t309 141.5q186 0 299 -149q-2 16 -2 45v84h211v-1479h-207v504q0 104 4 149q-56 -76 -134 -118.5t-171 -42.5q-191 0 -309.5 143.5t-118.5 363.5zM303 485q0 -138 73 -228.5t187 -90.5q116 0 186 89.5t70 227.5q0 143 -68.5 229.5t-187.5 86.5 q-114 0 -187 -88t-73 -226z" />
<glyph unicode="r" horiz-adv-x="675" d="M137 0v967h211v-66q0 -20 -4 -70q94 158 264 158v-203q-117 -5 -188.5 -80t-71.5 -198v-508h-211z" />
<glyph unicode="s" horiz-adv-x="899" d="M66 166l141 123q43 -62 111.5 -95.5t142.5 -33.5q58 0 98.5 31t40.5 71q0 35 -26 62.5t-67 48t-91 41t-100.5 46t-91.5 57.5t-67 82.5t-26 113.5q0 85 46 149t115 94.5t146 30.5q195 0 299 -141q-47 -37 -137 -115q-25 36 -69.5 59t-90.5 23q-45 0 -75.5 -24.5 t-30.5 -67.5q0 -30 26 -55.5t68 -45.5t93 -41.5t101.5 -48.5t92.5 -60t68 -83.5t26 -112.5q0 -127 -95.5 -210.5t-254.5 -83.5q-124 0 -226 47t-167 139z" />
<glyph unicode="t" horiz-adv-x="649" d="M66 772v195h151v376h215v-376h152v-195h-152v-772h-215v772h-151z" />
<glyph unicode="u" horiz-adv-x="1163" d="M133 408v559h213v-551q0 -126 62.5 -193t160.5 -67q96 0 171 73.5t75 188.5v549h211v-967h-211v63q0 22 4 80q-54 -76 -134 -121t-177 -45q-170 0 -272.5 113t-102.5 318z" />
<glyph unicode="v" horiz-adv-x="1040" d="M23 967h231l192 -504q16 -41 39 -110t29 -85q6 16 31 85t41 110l198 504h234l-387 -967h-234z" />
<glyph unicode="w" horiz-adv-x="1640" d="M23 967h231l207 -650q4 -14 8.5 -36t6.5 -37l3 -15q11 57 21 88l219 650h201l206 -650q4 -15 8.5 -34t7.5 -34.5t3 -17.5q0 28 20 86l219 650h234l-356 -967h-232l-196 575q-17 43 -17 72q-1 -2 -3.5 -15.5t-5.5 -29.5t-7 -27l-205 -575h-231q-202 566 -342 967z" />
<glyph unicode="x" horiz-adv-x="1056" d="M35 0l358 494l-340 473h246l152 -211q24 -33 43 -61.5t26 -40.5l8 -13q25 45 76 115l154 211h246l-345 -473l361 -494h-244l-166 229q-63 86 -82 115q-1 -1 -9.5 -13.5t-28 -41.5t-41.5 -60l-168 -229h-246z" />
<glyph unicode="y" horiz-adv-x="1058" d="M33 967h227l186 -453l76 -199q35 84 84 199l197 453h229l-686 -1549h-225l287 648z" />
<glyph unicode="z" horiz-adv-x="1040" d="M80 0v156l588 624q-84 -4 -168 -4h-389v191h833v-158l-594 -625q18 0 80 3t102 3h412v-190h-864z" />
<glyph unicode="{" horiz-adv-x="542" d="M41 623v200q135 0 135 133v437q0 114 73 185t193 71h39v-201h-16q-31 0 -52.5 -18t-21.5 -56v-422q0 -74 -34.5 -133t-98.5 -96q64 -38 98.5 -97.5t34.5 -131.5v-424q0 -38 21.5 -56t52.5 -18h16v-199h-39q-121 0 -193.5 70.5t-72.5 183.5v438q0 134 -135 134z" />
<glyph unicode="|" horiz-adv-x="544" d="M164 -115v1651h217v-1651h-217z" />
<glyph unicode="}" horiz-adv-x="542" d="M53 -4h17q31 0 52 18t21 56v424q0 151 131 229q-63 37 -97 96.5t-34 132.5v422q0 38 -21 56t-52 18h-17v201h39q120 0 193 -71t73 -185v-437q0 -133 136 -133v-200q-136 0 -136 -134v-438q0 -113 -72.5 -183.5t-193.5 -70.5h-39v199z" />
<glyph unicode="~" horiz-adv-x="1015" d="M37 768q48 71 117 107t147 36q67 0 176.5 -43t151.5 -43q41 0 82 22.5t63 61.5l144 -96q-54 -82 -129.5 -122t-153.5 -40q-70 0 -173 43t-157 43q-75 0 -139 -67z" />
<glyph unicode="&#xa1;" horiz-adv-x="495" d="M96 1300q0 62 45 107t107 45q63 0 108 -45t45 -107q0 -63 -45 -108t-108 -45q-62 0 -107 45t-45 108zM137 0l10 977h199l10 -977h-219z" />
<glyph unicode="&#xa2;" horiz-adv-x="950" d="M39 733q0 184 110 322t283 172v207h182v-205q158 -26 279 -156q-2 -2 -143 -137q-96 106 -218 106q-125 0 -202.5 -87t-77.5 -222q0 -137 78.5 -223t201.5 -86q143 0 228 123l155 -123q-121 -162 -301 -188v-236h-182v240q-173 34 -283 171.5t-110 321.5z" />
<glyph unicode="&#xa3;" horiz-adv-x="1036" d="M53 561v184h131q-14 143 -14 283q0 100 33 182.5t89 134.5t128 80.5t151 28.5q80 0 151 -25t128 -73.5t90 -128t33 -180.5q0 -34 -5 -82t-5 -60l-215 21q10 55 10 96q0 93 -45.5 151t-139.5 58q-86 0 -137 -60.5t-51 -152.5q0 -119 14 -273h285v-184h-274q0 -8 1 -24.5 t1 -24.5q0 -185 -54 -317h613v-195h-908v195h91q53 129 53 258q0 53 -6 108h-148z" />
<glyph unicode="&#xa4;" horiz-adv-x="1040" d="M47 995l129 129l131 -133q92 60 215 60q117 0 211 -58l131 131l129 -129l-137 -137q51 -94 51 -201q0 -117 -55 -211l139 -137l-129 -129l-135 137q-83 -53 -205 -53q-117 0 -209 53l-135 -137l-129 129l141 140q-53 92 -53 208q0 110 47 199zM328 657q0 -90 51 -154.5 t143 -64.5q90 0 141.5 65t51.5 154t-51 154.5t-142 65.5t-142.5 -65.5t-51.5 -154.5z" />
<glyph unicode="&#xa5;" horiz-adv-x="1062" d="M-10 1434h250l221 -355q44 -73 69 -123q0 3 6.5 17.5t23.5 44t38 61.5l233 355h252l-428 -648h211v-161h-227v-125h227v-162h-227v-338h-217v338h-242v162h242v125h-242v161h228z" />
<glyph unicode="&#xa6;" horiz-adv-x="389" d="M98 -117v793h183v-793h-183zM98 799v727h183v-727h-183z" />
<glyph unicode="&#xa7;" horiz-adv-x="976" d="M72 276l194 95q33 -90 95.5 -140.5t136.5 -50.5q69 0 109 32.5t40 86.5q0 42 -31 74.5t-80.5 55t-109.5 44t-119.5 48.5t-109 61t-80.5 90t-31 127q0 55 32 112.5t85 100.5q-39 58 -39 137q0 132 98.5 218.5t239.5 86.5q98 0 177.5 -43t129.5 -121l-160 -121 q-54 82 -141 82q-53 0 -86 -26.5t-33 -69.5q0 -34 28.5 -63t74.5 -51.5t101.5 -46.5t111 -53t101.5 -64.5t74.5 -88t28.5 -116.5q0 -67 -27 -123t-67 -92q45 -68 45 -152q0 -66 -21.5 -122.5t-65 -102.5t-116.5 -72t-168 -26q-140 0 -253.5 73.5t-163.5 220.5zM283 825 q0 -38 24 -68t68.5 -53t91.5 -41.5t109.5 -44t105.5 -49.5q16 27 16 60q0 41 -23 74.5t-66 59t-87 45.5t-104 47t-99 50q-36 -36 -36 -80z" />
<glyph unicode="&#xa8;" horiz-adv-x="761" d="M72 1255q0 51 35 86t86 35q50 0 85 -35t35 -86t-35 -85.5t-85 -34.5q-51 0 -86 34.5t-35 85.5zM453 1255q0 51 34.5 86t85.5 35q50 0 85.5 -35t35.5 -86t-35.5 -85.5t-85.5 -34.5q-51 0 -85.5 34.5t-34.5 85.5z" />
<glyph unicode="&#xa9;" horiz-adv-x="1622" d="M72 715q0 150 58.5 287t157 236t235.5 157.5t288 58.5q150 0 287 -58.5t236 -157.5t157.5 -236t58.5 -287t-58.5 -287t-157.5 -235.5t-236 -157t-287 -58.5q-151 0 -288 58.5t-235.5 157t-157 235.5t-58.5 287zM215 715q0 -168 78 -306t215 -217t303 -79t303 79.5 t215 217.5t78 305q0 168 -77.5 306t-214.5 217t-304 79t-304 -79.5t-214.5 -217.5t-77.5 -305zM408 717q0 176 121 300t292 124q177 0 301 -137l-125 -121q-74 84 -176 84q-95 0 -161 -71.5t-66 -178.5q0 -106 69.5 -178t161.5 -72q112 0 187 98l131 -108 q-122 -166 -322 -166q-171 0 -292 124.5t-121 301.5z" />
<glyph unicode="&#xaa;" horiz-adv-x="874" d="M66 887q0 104 84.5 181t240.5 77q105 0 184 -39v35q0 69 -38 110t-111 41q-108 0 -170 -86l-129 99q120 147 303 147q143 0 233.5 -80t90.5 -227v-275q0 -51 53 -51h16v-141h-39q-71 0 -123 36t-69 99q-90 -154 -270 -154q-120 0 -188 67t-68 161zM258 897 q0 -38 30.5 -67t82.5 -29q92 0 145.5 60.5t58.5 144.5q-88 20 -143 20q-82 0 -128 -38.5t-46 -90.5z" />
<glyph unicode="&#xab;" horiz-adv-x="1058" d="M39 774l426 426q18 -19 39.5 -40.5t47.5 -47t40 -39.5l-238 -237q-54 -54 -61 -62l299 -297l-127 -129zM449 774l425 426q18 -19 39.5 -40.5t47.5 -47t40 -39.5l-237 -237q-9 -9 -23 -22.5t-23.5 -23t-15.5 -16.5l299 -297l-127 -129z" />
<glyph unicode="&#xac;" horiz-adv-x="903" d="M82 676v194h743v-401h-184v207h-559z" />
<glyph unicode="&#xad;" horiz-adv-x="661" d="M82 487v172h498v-172h-498z" />
<glyph unicode="&#xae;" horiz-adv-x="1087" d="M51 956q0 135 66.5 249.5t181 181.5t250.5 67q135 0 249.5 -67t181.5 -181.5t67 -249.5q0 -136 -67 -250.5t-181.5 -180.5t-249.5 -66q-136 0 -250.5 66t-181 180.5t-66.5 250.5zM164 956q0 -167 110 -278t275 -111q164 0 274.5 112t110.5 277q0 166 -110 278t-275 112 t-275 -112.5t-110 -277.5zM397 733v455h168q66 0 107 -40.5t41 -107.5q0 -47 -20 -82t-54 -53l88 -172h-102l-76 156h-60v-156h-92zM489 975h60q35 0 54.5 17t19.5 48q0 30 -19.5 47t-54.5 17h-60v-129z" />
<glyph unicode="&#xb0;" horiz-adv-x="503" d="M23 1231q0 93 65 158t158 65q92 0 157.5 -65.5t65.5 -157.5t-65.5 -157.5t-157.5 -65.5q-93 0 -158 65t-65 158zM166 1231q0 -32 24 -55t56 -23q31 0 53.5 23t22.5 55t-22.5 55t-53.5 23q-32 0 -56 -23t-24 -55z" />
<glyph unicode="&#xb1;" horiz-adv-x="907" d="M66 264v162h751v-162h-751zM82 786v172h285v287h172v-287h286v-172h-286v-284h-172v284h-285z" />
<glyph unicode="&#xb2;" horiz-adv-x="677" d="M63 696v142q47 18 104 54t114.5 85t96 112t38.5 123q0 40 -22 62t-56 22q-54 0 -74.5 -40t-5.5 -91l-164 -47q-16 46 -16 90q0 108 75 176t187 68q103 0 177.5 -63.5t74.5 -178.5q0 -103 -67 -197.5t-183 -152.5h256v-164h-535z" />
<glyph unicode="&#xb3;" horiz-adv-x="681" d="M49 854q49 17 170 66q11 -35 40 -56.5t69 -21.5q45 0 71.5 25t26.5 63t-26.5 65t-73.5 27h-35v119q41 0 67.5 25.5t26.5 64.5q0 26 -14 41.5t-37 15.5q-24 0 -39 -17.5t-16 -49.5h-183q0 76 36.5 130.5t90.5 78.5t117 24q103 0 163 -59t60 -150q0 -103 -88 -155 q63 -17 100 -65.5t37 -111.5q0 -105 -76.5 -171t-201.5 -66q-121 0 -196.5 58t-88.5 120z" />
<glyph unicode="&#xb4;" horiz-adv-x="579" d="M63 1120l308 287l118 -127l-309 -287z" />
<glyph unicode="&#xb6;" horiz-adv-x="1288" d="M100 1020q0 175 116 294.5t294 119.5h324v-1434h-218v610h-106q-180 0 -295 115t-115 295zM946 0v1434h215v-1434h-215z" />
<glyph unicode="&#xb7;" horiz-adv-x="481" d="M88 743q0 61 45 106.5t107 45.5q63 0 108 -45t45 -107q0 -63 -45 -108t-108 -45q-62 0 -107 45t-45 108z" />
<glyph unicode="&#xb8;" horiz-adv-x="868" d="M256 -391l115 78l5 -6q5 -6 10 -10.5t12.5 -10t18.5 -9t23 -3.5q33 0 51.5 20.5t18.5 48.5q0 27 -18 48.5t-50 21.5q-41 0 -61 -41l-102 45v272h127v-184q35 25 75 25q88 0 136.5 -56.5t48.5 -136.5q0 -83 -57 -145t-158 -62q-51 0 -95.5 22t-64.5 42t-35 41z" />
<glyph unicode="&#xb9;" horiz-adv-x="593" d="M35 1327l215 107h129v-576h137v-162h-455v162h136v367l-88 -43z" />
<glyph unicode="&#xba;" horiz-adv-x="970" d="M78 1061q0 75 24.5 144.5t70.5 125.5t121.5 89.5t168.5 33.5q92 0 167 -33.5t121.5 -89.5t71.5 -125.5t25 -144.5t-24.5 -144.5t-71 -125.5t-121.5 -89.5t-168 -33.5t-168.5 33.5t-121.5 89.5t-70.5 125.5t-24.5 144.5zM268 1061q0 -90 51.5 -154.5t143.5 -64.5 q90 0 141 64.5t51 154.5q0 89 -50.5 154t-141.5 65t-143 -65.5t-52 -153.5z" />
<glyph unicode="&#xbb;" horiz-adv-x="1058" d="M59 477l240 238q45 45 61 59l-301 299l129 127l426 -426l-426 -426zM469 477l240 238q45 45 61 59l-301 299l129 127l426 -426l-426 -426z" />
<glyph unicode="&#xbc;" horiz-adv-x="1452" d="M35 1327l215 107h129v-576h137v-162h-455v162h136v367l-88 -43zM236 0l765 1434h216l-766 -1434h-215zM784 156v106l357 483h137v-428h117v-161h-117v-156h-182v156h-312zM987 309h113v160z" />
<glyph unicode="&#xbd;" horiz-adv-x="983" d="M35 1327l215 107h129v-576h137v-162h-455v162h136v367l-88 -43zM217 0l766 1434h215l-766 -1434h-215zM801 0v141q47 18 104 54.5t114.5 85.5t95.5 112t38 123q0 40 -22 62t-56 22q-54 0 -74.5 -40t-5.5 -91l-164 -47q-16 46 -16 90q0 108 75 176t187 68 q103 0 177.5 -63.5t74.5 -178.5q0 -103 -67 -197.5t-183 -152.5h256v-164h-534z" />
<glyph unicode="&#xbe;" horiz-adv-x="1019" d="M37 854q49 17 170 66q11 -35 39.5 -56.5t68.5 -21.5q45 0 72 25t27 63t-27 65t-74 27h-34v119q41 0 67.5 25.5t26.5 64.5q0 26 -14 41.5t-37 15.5q-24 0 -39.5 -17.5t-16.5 -49.5h-182q0 76 36.5 130.5t90.5 78.5t117 24q103 0 163 -59t60 -150q0 -103 -88 -155 q63 -17 100 -65.5t37 -111.5q0 -105 -76.5 -171t-201.5 -66q-121 0 -196.5 58t-88.5 120zM242 0l766 1434h215l-766 -1434h-215zM723 156v106l356 483h138v-428h116v-161h-116v-156h-183v156h-311zM926 309h112v160z" />
<glyph unicode="&#xbf;" horiz-adv-x="970" d="M70 373q0 164 151 319q34 35 47.5 49.5t42 47t40.5 54.5t27.5 54.5t20 66t2.5 70.5h224q4 -69 -11.5 -130.5t-49 -114t-65.5 -91.5t-76 -85l-13 -13q-121 -125 -121 -225q0 -86 56.5 -137.5t143.5 -51.5q97 0 159.5 57t62.5 156q0 54 -21 119l205 60q29 -54 29 -177 q0 -98 -37.5 -179.5t-99.5 -133.5t-139 -80t-159 -28q-188 0 -303.5 106.5t-115.5 286.5zM350 1300q0 63 45.5 108.5t108.5 45.5q62 0 106.5 -45.5t44.5 -108.5q0 -62 -44.5 -106.5t-106.5 -44.5q-63 0 -108.5 44.5t-45.5 106.5z" />
<glyph unicode="&#xc0;" horiz-adv-x="1187" d="M14 0l463 1434h232l462 -1434h-231l-119 397h-454l-119 -397h-234zM289 1780l119 127l307 -287l-117 -127zM426 594h336l-129 434q-29 92 -39 158q-7 -53 -39 -162z" />
<glyph unicode="&#xc1;" horiz-adv-x="1187" d="M14 0l463 1434h232l462 -1434h-231l-119 397h-454l-119 -397h-234zM426 594h336l-129 434q-29 92 -39 158q-7 -53 -39 -162zM473 1620l307 287l119 -127l-309 -287z" />
<glyph unicode="&#xc2;" horiz-adv-x="1187" d="M14 0l463 1434h232l462 -1434h-231l-119 397h-454l-119 -397h-234zM319 1702l201 203h146l202 -203l-127 -129l-100 115l-47 55l-49 -55q-19 -21 -52.5 -62t-43.5 -53zM426 594h336l-129 434q-29 92 -39 158q-7 -53 -39 -162z" />
<glyph unicode="&#xc3;" horiz-adv-x="1187" d="M14 0l463 1434h232l462 -1434h-231l-119 397h-454l-119 -397h-234zM250 1694q85 106 211 106q50 0 143 -41t137 -41q11 0 22 2.5t20.5 6.5t19 9.5t16 10.5t13.5 11.5t11 10t9 8.5l4 5q20 -18 56.5 -53.5t56.5 -53.5q-83 -123 -219 -123q-57 0 -151 40t-134 40 q-18 0 -34.5 -4.5t-29.5 -12t-21.5 -14t-17.5 -14.5l-8 -8zM426 594h336l-129 434q-29 92 -39 158q-7 -53 -39 -162z" />
<glyph unicode="&#xc4;" horiz-adv-x="1187" d="M14 0l463 1434h232l462 -1434h-231l-119 397h-454l-119 -397h-234zM287 1714q0 51 35 86t86 35q50 0 85 -35t35 -86t-35 -86t-85 -35q-51 0 -86 35t-35 86zM426 594h336l-129 434q-29 92 -39 158q-7 -53 -39 -162zM668 1714q0 51 34.5 86t85.5 35q50 0 85.5 -35t35.5 -86 t-35.5 -86t-85.5 -35q-51 0 -85.5 35t-34.5 86z" />
<glyph unicode="&#xc5;" horiz-adv-x="1198" d="M20 0l463 1434h2q-50 30 -80 82t-30 114q0 94 65.5 159.5t159.5 65.5t160.5 -65.5t66.5 -159.5q0 -62 -30 -114t-82 -82l463 -1434h-232l-119 397h-454l-119 -397h-234zM432 594h336l-129 434q-29 92 -39 158q-7 -53 -39 -162zM510 1630q0 -37 26.5 -64.5t63.5 -27.5 t63.5 27.5t26.5 64.5t-26.5 62.5t-63.5 25.5t-63.5 -25.5t-26.5 -62.5z" />
<glyph unicode="&#xc6;" horiz-adv-x="1632" d="M-41 0l698 1434h879v-197h-602v-399h422v-191h-422v-452h602v-195h-819v399h-336l-188 -399h-234zM465 575h252v570q-78 -207 -137 -330z" />
<glyph unicode="&#xc7;" horiz-adv-x="1384" d="M51 717q0 199 97.5 368t266.5 268t369 99q318 0 535 -233l-160 -146q-169 172 -377 172q-141 0 -259 -71t-185.5 -192t-67.5 -265q0 -145 67.5 -267t185.5 -193t259 -71q211 0 383 179l162 -142q-219 -243 -543 -243q-24 0 -36 2v-103q35 25 75 25q88 0 136.5 -56.5 t48.5 -136.5q0 -83 -57 -145t-158 -62q-51 0 -95.5 22t-64.5 42t-35 41l115 78l5 -6q5 -6 10 -10.5t12.5 -10t18.5 -9t23 -3.5q33 0 51.5 20.5t18.5 48.5q0 27 -18 48.5t-50 21.5q-41 0 -61 -41l-102 45v207q-249 56 -409.5 256.5t-160.5 462.5z" />
<glyph unicode="&#xc8;" d="M164 0v1434h819v-199h-602v-385h453v-197h-453v-456h602v-197h-819zM373 1780l119 127l307 -287l-117 -127z" />
<glyph unicode="&#xc9;" d="M164 0v1434h819v-199h-602v-385h453v-197h-453v-456h602v-197h-819zM344 1620l307 287l119 -127l-309 -287z" />
<glyph unicode="&#xca;" d="M164 0v1434h819v-199h-602v-385h453v-197h-453v-456h602v-197h-819zM301 1690l201 202h145l203 -202l-127 -129l-100 114l-48 56l-49 -56q-19 -22 -54.5 -64.5t-41.5 -49.5z" />
<glyph unicode="&#xcb;" d="M164 0v1434h819v-199h-602v-385h453v-197h-453v-456h602v-197h-819zM264 1755q0 51 35 86t86 35q50 0 85.5 -35t35.5 -86t-35.5 -86t-85.5 -35q-51 0 -86 35t-35 86zM645 1755q0 51 35 86t86 35q50 0 85.5 -35t35.5 -86t-35.5 -86t-85.5 -35q-51 0 -86 35t-35 86z" />
<glyph unicode="&#xcc;" horiz-adv-x="802" d="M72 1780l118 127l308 -287l-117 -127zM125 0v182h176v1067h-176v185h569v-185h-176v-1067h176v-182h-569z" />
<glyph unicode="&#xcd;" horiz-adv-x="784" d="M109 0v182h176v1067h-176v185h569v-185h-176v-1067h176v-182h-569zM272 1620l308 287l118 -127l-309 -287z" />
<glyph unicode="&#xce;" horiz-adv-x="784" d="M106 1690l201 202h146l202 -202l-127 -129l-100 114l-47 56l-49 -56q-19 -22 -54.5 -64.5t-41.5 -49.5zM109 0v182h176v1067h-176v185h569v-185h-176v-1067h176v-182h-569z" />
<glyph unicode="&#xcf;" horiz-adv-x="798" d="M84 1755q0 51 35 86t86 35q50 0 85.5 -35t35.5 -86t-35.5 -86t-85.5 -35q-51 0 -86 35t-35 86zM121 0v182h176v1067h-176v185h569v-185h-176v-1067h176v-182h-569zM465 1755q0 51 35 86t86 35q50 0 85.5 -35t35.5 -86t-35.5 -86t-85.5 -35q-51 0 -86 35t-35 86z" />
<glyph unicode="&#xd0;" horiz-adv-x="1398" d="M41 623v196h133v615h399q174 0 308 -40.5t232 -123.5t149 -218t51 -317q0 -173 -50 -312.5t-140 -231.5t-215 -141.5t-275 -49.5h-459v623h-133zM393 195h236q215 0 340 144t125 398q0 138 -34.5 235t-103 155t-162 84t-221.5 26h-180v-418h283v-196h-283v-428z" />
<glyph unicode="&#xd1;" horiz-adv-x="1273" d="M164 0v1434h211l483 -678q31 -48 45 -76l-1 6q0 6 -0.5 15.5t-1 20.5t-1 24t-0.5 24v664h211v-1434h-211v350l-483 662q-16 20 -32.5 46.5t-18.5 33.5l1 -6q0 -7 1 -17.5t2 -22.5t1.5 -26t0.5 -25v-995h-207zM285 1694q85 106 211 106q50 0 143 -41t137 -41q11 0 22 2.5 t20.5 6.5t19 9.5t16 10.5t13.5 11.5t11 10t8 8.5l5 5q19 -18 56 -53.5t57 -53.5q-83 -123 -220 -123q-57 0 -150.5 40t-133.5 40q-18 0 -34.5 -4.5t-29.5 -12t-21.5 -14t-16.5 -14.5l-9 -8z" />
<glyph unicode="&#xd2;" horiz-adv-x="1615" d="M72 717q0 198 98.5 367.5t268.5 268.5t370 99q148 0 284 -58.5t235 -157.5t157.5 -235t58.5 -284q0 -200 -99 -370t-268.5 -268.5t-367.5 -98.5q-150 0 -286.5 58t-235.5 157t-157 235.5t-58 286.5zM295 717q0 -231 146 -382t368 -151q144 0 261.5 69t184 191.5 t66.5 272.5q0 229 -145.5 379.5t-366.5 150.5q-222 0 -368 -151t-146 -379zM604 1780l119 127l307 -287l-117 -127z" />
<glyph unicode="&#xd3;" horiz-adv-x="1615" d="M72 717q0 198 98.5 367.5t268.5 268.5t370 99q148 0 284 -58.5t235 -157.5t157.5 -235t58.5 -284q0 -200 -99 -370t-268.5 -268.5t-367.5 -98.5q-150 0 -286.5 58t-235.5 157t-157 235.5t-58 286.5zM295 717q0 -231 146 -382t368 -151q144 0 261.5 69t184 191.5 t66.5 272.5q0 229 -145.5 379.5t-366.5 150.5q-222 0 -368 -151t-146 -379zM575 1620l308 287l118 -127l-309 -287z" />
<glyph unicode="&#xd4;" horiz-adv-x="1615" d="M72 717q0 198 98.5 367.5t268.5 268.5t370 99q148 0 284 -58.5t235 -157.5t157.5 -235t58.5 -284q0 -200 -99 -370t-268.5 -268.5t-367.5 -98.5q-150 0 -286.5 58t-235.5 157t-157 235.5t-58 286.5zM295 717q0 -231 146 -382t368 -151q144 0 261.5 69t184 191.5 t66.5 272.5q0 229 -145.5 379.5t-366.5 150.5q-222 0 -368 -151t-146 -379zM532 1690l201 202h146l202 -202l-127 -129l-100 114l-47 56l-49 -56q-19 -22 -54.5 -64.5t-41.5 -49.5z" />
<glyph unicode="&#xd5;" horiz-adv-x="1615" d="M72 717q0 198 98.5 367.5t268.5 268.5t370 99q148 0 284 -58.5t235 -157.5t157.5 -235t58.5 -284q0 -200 -99 -370t-268.5 -268.5t-367.5 -98.5q-150 0 -286.5 58t-235.5 157t-157 235.5t-58 286.5zM295 717q0 -231 146 -382t368 -151q144 0 261.5 69t184 191.5 t66.5 272.5q0 229 -145.5 379.5t-366.5 150.5q-222 0 -368 -151t-146 -379zM465 1694q85 106 211 106q50 0 143 -41t137 -41q11 0 22 2.5t20.5 6.5t19 9.5t16 10.5t13.5 11.5t11 10t8 8.5l5 5q19 -18 56.5 -53.5t56.5 -53.5q-83 -123 -219 -123q-57 0 -151 40t-134 40 q-18 0 -34.5 -4.5t-29.5 -12t-21.5 -14t-16.5 -14.5l-9 -8z" />
<glyph unicode="&#xd6;" horiz-adv-x="1615" d="M72 717q0 198 98.5 367.5t268.5 268.5t370 99q148 0 284 -58.5t235 -157.5t157.5 -235t58.5 -284q0 -200 -99 -370t-268.5 -268.5t-367.5 -98.5q-150 0 -286.5 58t-235.5 157t-157 235.5t-58 286.5zM295 717q0 -231 146 -382t368 -151q144 0 261.5 69t184 191.5 t66.5 272.5q0 229 -145.5 379.5t-366.5 150.5q-222 0 -368 -151t-146 -379zM496 1755q0 51 34.5 86t85.5 35q50 0 85.5 -35t35.5 -86t-35.5 -86t-85.5 -35q-51 0 -85.5 35t-34.5 86zM877 1755q0 51 34.5 86t85.5 35q50 0 85.5 -35t35.5 -86t-35.5 -86t-85.5 -35 q-51 0 -85.5 35t-34.5 86z" />
<glyph unicode="&#xd7;" horiz-adv-x="847" d="M49 1010l117 116l248 -249l245 249l117 -116l-250 -248l248 -248l-115 -113l-245 248l-248 -248l-115 113l248 248z" />
<glyph unicode="&#xd8;" horiz-adv-x="1615" d="M72 717q0 198 98.5 367.5t268.5 268.5t370 99q148 0 284 -58.5t235 -157.5t157.5 -235t58.5 -284q0 -200 -99 -370t-268.5 -268.5t-367.5 -98.5q-150 0 -286.5 58t-235.5 157t-157 235.5t-58 286.5zM295 717q0 -132 49.5 -241.5t138.5 -180.5l496 926q-86 26 -170 26 q-222 0 -368 -151t-146 -379zM629 213q89 -29 180 -29q144 0 261.5 69t184 191.5t66.5 272.5q0 132 -51.5 242.5t-143.5 181.5z" />
<glyph unicode="&#xd9;" horiz-adv-x="1265" d="M164 504v930h219v-965q0 -130 73 -209.5t179 -79.5q107 0 180.5 79.5t73.5 209.5v965h219v-930q0 -109 -25.5 -197.5t-69 -148.5t-104 -100.5t-129 -59t-145.5 -18.5q-76 0 -144 18.5t-128.5 59t-104 100.5t-69 148.5t-25.5 197.5zM436 1780l119 127l307 -287l-117 -127z " />
<glyph unicode="&#xda;" horiz-adv-x="1265" d="M164 504v930h219v-965q0 -130 73 -209.5t179 -79.5q107 0 180.5 79.5t73.5 209.5v965h219v-930q0 -109 -25.5 -197.5t-69 -148.5t-104 -100.5t-129 -59t-145.5 -18.5q-76 0 -144 18.5t-128.5 59t-104 100.5t-69 148.5t-25.5 197.5zM408 1620l307 287l119 -127l-310 -287z " />
<glyph unicode="&#xdb;" horiz-adv-x="1265" d="M164 504v930h219v-965q0 -130 73 -209.5t179 -79.5q107 0 180.5 79.5t73.5 209.5v965h219v-930q0 -109 -25.5 -197.5t-69 -148.5t-104 -100.5t-129 -59t-145.5 -18.5q-76 0 -144 18.5t-128.5 59t-104 100.5t-69 148.5t-25.5 197.5zM365 1690l200 202h146l202 -202 l-127 -129l-100 114l-47 56l-49 -56q-19 -22 -54.5 -64.5t-41.5 -49.5z" />
<glyph unicode="&#xdc;" horiz-adv-x="1265" d="M164 504v930h219v-965q0 -130 73 -209.5t179 -79.5q107 0 180.5 79.5t73.5 209.5v965h219v-930q0 -109 -25.5 -197.5t-69 -148.5t-104 -100.5t-129 -59t-145.5 -18.5q-76 0 -144 18.5t-128.5 59t-104 100.5t-69 148.5t-25.5 197.5zM326 1755q0 51 34.5 86t85.5 35 q50 0 85.5 -35t35.5 -86t-35.5 -86t-85.5 -35q-51 0 -85.5 35t-34.5 86zM707 1755q0 51 34.5 86t85.5 35q50 0 85.5 -35t35.5 -86t-35.5 -86t-85.5 -35q-51 0 -85.5 35t-34.5 86z" />
<glyph unicode="&#xdd;" horiz-adv-x="1124" d="M16 1434h250l248 -430q10 -19 20 -39.5t16 -35t7 -16.5q0 3 5 16t15.5 34.5t22.5 42.5l258 428h252l-444 -723v-711h-217v713zM324 1620l307 287l119 -127l-310 -287z" />
<glyph unicode="&#xde;" horiz-adv-x="1150" d="M164 0v1434h217v-232h233q203 0 329 -107t126 -304q0 -181 -114 -296.5t-293 -115.5h-281v-379h-217zM381 580h258q97 0 158 59.5t61 151.5q0 102 -68 156t-180 54h-229v-421z" />
<glyph unicode="&#xdf;" horiz-adv-x="1036" d="M117 0v1100q0 162 99 258t245 96q150 0 240 -88.5t90 -237.5q0 -154 -95 -276q-20 -27 -20 -45q0 -31 53 -55h-2q40 -20 67 -36.5t61.5 -46.5t55.5 -63.5t35.5 -84t14.5 -111.5q0 -187 -141 -303.5t-378 -116.5v198q137 0 216 59.5t79 162.5q0 59 -29.5 102t-71 69 t-83 51t-71 63t-29.5 89q0 40 13.5 76.5t32.5 65.5t37.5 58t32 68t13.5 83q0 64 -33.5 100.5t-87.5 36.5q-55 0 -92 -45.5t-37 -132.5v-1094h-215z" />
<glyph unicode="&#xe0;" horiz-adv-x="1130" d="M92 264q0 138 112 229t322 91q88 0 246 -31v49q0 91 -60 147t-159 56q-65 0 -123.5 -30.5t-95.5 -84.5l-154 117q5 8 14 20.5t43 45.5t74 58t107.5 45.5t142.5 20.5q193 0 306.5 -107t113.5 -282v-354q0 -26 15.5 -41.5t43.5 -15.5h29v-197h-59q-166 0 -215 170 q-53 -81 -146.5 -135.5t-226.5 -54.5q-156 0 -243 83.5t-87 200.5zM311 276q0 -54 41 -88t117 -34q124 0 203 75.5t98 180.5q-113 24 -209 24q-113 0 -181.5 -44t-68.5 -114zM348 1321l119 127l307 -287l-117 -127z" />
<glyph unicode="&#xe1;" horiz-adv-x="1130" d="M92 264q0 138 112 229t322 91q88 0 246 -31v49q0 91 -60 147t-159 56q-65 0 -123.5 -30.5t-95.5 -84.5l-154 117q5 8 14 20.5t43 45.5t74 58t107.5 45.5t142.5 20.5q193 0 306.5 -107t113.5 -282v-354q0 -26 15.5 -41.5t43.5 -15.5h29v-197h-59q-166 0 -215 170 q-53 -81 -146.5 -135.5t-226.5 -54.5q-156 0 -243 83.5t-87 200.5zM311 276q0 -54 41 -88t117 -34q124 0 203 75.5t98 180.5q-113 24 -209 24q-113 0 -181.5 -44t-68.5 -114zM330 1161l307 287l119 -127l-310 -287z" />
<glyph unicode="&#xe2;" horiz-adv-x="1130" d="M92 264q0 138 112 229t322 91q88 0 246 -31v49q0 91 -60 147t-159 56q-65 0 -123.5 -30.5t-95.5 -84.5l-154 117q5 8 14 20.5t43 45.5t74 58t107.5 45.5t142.5 20.5q193 0 306.5 -107t113.5 -282v-354q0 -26 15.5 -41.5t43.5 -15.5h29v-197h-59q-166 0 -215 170 q-53 -81 -146.5 -135.5t-226.5 -54.5q-156 0 -243 83.5t-87 200.5zM293 1190l201 203h145l203 -203l-127 -129l-101 115l-47 55l-49 -55q-19 -21 -52.5 -62t-43.5 -53zM311 276q0 -54 41 -88t117 -34q124 0 203 75.5t98 180.5q-113 24 -209 24q-113 0 -181.5 -44t-68.5 -114 z" />
<glyph unicode="&#xe3;" horiz-adv-x="1130" d="M92 264q0 138 112 229t322 91q88 0 246 -31v49q0 91 -60 147t-159 56q-65 0 -123.5 -30.5t-95.5 -84.5l-154 117q5 8 14 20.5t43 45.5t74 58t107.5 45.5t142.5 20.5q193 0 306.5 -107t113.5 -282v-354q0 -26 15.5 -41.5t43.5 -15.5h29v-197h-59q-166 0 -215 170 q-53 -81 -146.5 -135.5t-226.5 -54.5q-156 0 -243 83.5t-87 200.5zM219 1214q86 107 211 107q50 0 143.5 -41t137.5 -41q12 0 24.5 3t23.5 8.5t20 11t17 13t13 12t11 10.5l5 6q20 -17 57 -53.5t56 -53.5q-83 -123 -219 -123q-57 0 -151 40t-134 40q-18 0 -34.5 -4.5t-29 -12 t-21 -14t-16.5 -14t-9 -8.5zM311 276q0 -54 41 -88t117 -34q124 0 203 75.5t98 180.5q-113 24 -209 24q-113 0 -181.5 -44t-68.5 -114z" />
<glyph unicode="&#xe4;" horiz-adv-x="1130" d="M92 264q0 138 112 229t322 91q88 0 246 -31v49q0 91 -60 147t-159 56q-65 0 -123.5 -30.5t-95.5 -84.5l-154 117q5 8 14 20.5t43 45.5t74 58t107.5 45.5t142.5 20.5q193 0 306.5 -107t113.5 -282v-354q0 -26 15.5 -41.5t43.5 -15.5h29v-197h-59q-166 0 -215 170 q-53 -81 -146.5 -135.5t-226.5 -54.5q-156 0 -243 83.5t-87 200.5zM258 1255q0 51 35 86t86 35q50 0 85.5 -35t35.5 -86t-35.5 -85.5t-85.5 -34.5q-51 0 -86 34.5t-35 85.5zM311 276q0 -54 41 -88t117 -34q124 0 203 75.5t98 180.5q-113 24 -209 24q-113 0 -181.5 -44 t-68.5 -114zM639 1255q0 51 35 86t86 35q50 0 85.5 -35t35.5 -86t-35.5 -85.5t-85.5 -34.5q-51 0 -86 34.5t-35 85.5z" />
<glyph unicode="&#xe5;" horiz-adv-x="1120" d="M92 264q0 138 112 229t322 91q88 0 246 -31v49q0 91 -60 147t-159 56q-65 0 -123.5 -30.5t-95.5 -84.5l-154 117q5 8 14 20.5t43 45.5t74 58t107.5 45.5t142.5 20.5q193 0 306.5 -107t113.5 -282v-354q0 -26 15.5 -41.5t43.5 -15.5h29v-197h-59q-166 0 -215 170 q-53 -81 -146.5 -135.5t-226.5 -54.5q-156 0 -243 83.5t-87 200.5zM311 276q0 -54 41 -88t117 -34q124 0 203 75.5t98 180.5q-113 24 -209 24q-113 0 -181.5 -44t-68.5 -114zM340 1282q0 94 65.5 159.5t159.5 65.5t161 -66t67 -159q0 -94 -67 -160.5t-161 -66.5t-159.5 66.5 t-65.5 160.5zM475 1282q0 -37 26.5 -64.5t63.5 -27.5t63.5 27.5t26.5 64.5t-26.5 62.5t-63.5 25.5t-63.5 -25.5t-26.5 -62.5z" />
<glyph unicode="&#xe6;" horiz-adv-x="1816" d="M92 260q0 143 112.5 233.5t325.5 90.5q129 0 242 -33v51q0 93 -59 148t-160 55q-65 0 -123.5 -29.5t-95.5 -85.5l-154 117q5 8 14 20.5t43 45.5t74 58t107.5 45.5t142.5 20.5q261 0 338 -211q54 96 147 149.5t220 53.5q107 0 191 -40t136.5 -109.5t79.5 -160t27 -194.5 v-53h-721q9 -132 87.5 -204t199.5 -72q93 0 163 39t113 104l144 -111q-77 -102 -175.5 -155t-242.5 -53q-141 0 -242.5 68t-153.5 188q-52 -117 -162.5 -186.5t-267.5 -69.5q-167 0 -258.5 79.5t-91.5 200.5zM309 276q0 -54 41.5 -92.5t122.5 -38.5q74 0 132.5 27t92.5 70 t52.5 89.5t21.5 92.5q-2 0 -45 8t-80.5 12.5t-75.5 4.5q-120 0 -191 -48t-71 -125zM985 575h502q-6 108 -73 172t-169 64q-100 0 -170.5 -64t-89.5 -172z" />
<glyph unicode="&#xe7;" horiz-adv-x="1046" d="M96 485q0 139 64 254.5t177 182.5t251 67q211 0 362 -164q-2 -2 -143 -137q-97 107 -217 107q-125 0 -203 -87.5t-78 -222.5q0 -137 78.5 -223t202.5 -86q142 0 227 123l156 -123q-144 -194 -383 -194q-8 0 -24 1t-23 1v-105q35 25 75 25q88 0 136.5 -56.5t48.5 -136.5 q0 -83 -57 -145t-158 -62q-51 0 -95.5 22t-64.5 42t-35 41l115 78l5 -6q5 -6 10 -10.5t13 -10t19 -9t23 -3.5q33 0 51 20t18 49q0 27 -17.5 48.5t-49.5 21.5q-42 0 -62 -41l-102 45v221q-144 53 -232 181.5t-88 291.5z" />
<glyph unicode="&#xe8;" d="M82 485q0 103 34.5 195t96 160.5t152.5 108.5t198 40q114 0 202.5 -40t142 -110t81 -159.5t27.5 -194.5v-53h-721q14 -134 95 -204t194 -70q178 0 274 141l146 -111q-52 -68 -105.5 -111t-135 -70t-188.5 -27q-218 0 -355.5 143t-137.5 362zM301 575h502 q-14 109 -78.5 172.5t-163.5 63.5q-97 0 -168 -61t-92 -175zM352 1321l119 127l307 -287l-116 -127z" />
<glyph unicode="&#xe9;" d="M82 485q0 103 34.5 195t96 160.5t152.5 108.5t198 40q114 0 202.5 -40t142 -110t81 -159.5t27.5 -194.5v-53h-721q14 -134 95 -204t194 -70q178 0 274 141l146 -111q-52 -68 -105.5 -111t-135 -70t-188.5 -27q-218 0 -355.5 143t-137.5 362zM301 575h502 q-14 109 -78.5 172.5t-163.5 63.5q-97 0 -168 -61t-92 -175zM324 1161l307 287l119 -127l-310 -287z" />
<glyph unicode="&#xea;" d="M82 485q0 103 34.5 195t96 160.5t152.5 108.5t198 40q114 0 202.5 -40t142 -110t81 -159.5t27.5 -194.5v-53h-721q14 -134 95 -204t194 -70q178 0 274 141l146 -111q-52 -68 -105.5 -111t-135 -70t-188.5 -27q-218 0 -355.5 143t-137.5 362zM281 1190l200 203h146 l202 -203l-127 -129l-100 115l-47 55l-49 -55q-19 -21 -52.5 -62t-43.5 -53zM301 575h502q-14 109 -78.5 172.5t-163.5 63.5q-97 0 -168 -61t-92 -175z" />
<glyph unicode="&#xeb;" d="M82 485q0 103 34.5 195t96 160.5t152.5 108.5t198 40q114 0 202.5 -40t142 -110t81 -159.5t27.5 -194.5v-53h-721q14 -134 95 -204t194 -70q178 0 274 141l146 -111q-52 -68 -105.5 -111t-135 -70t-188.5 -27q-218 0 -355.5 143t-137.5 362zM242 1255q0 51 34.5 86 t85.5 35q50 0 85.5 -35t35.5 -86t-35.5 -85.5t-85.5 -34.5q-51 0 -85.5 34.5t-34.5 85.5zM301 575h502q-14 109 -78.5 172.5t-163.5 63.5q-97 0 -168 -61t-92 -175zM623 1255q0 51 34.5 86t85.5 35q50 0 85.5 -35t35.5 -86t-35.5 -85.5t-85.5 -34.5q-51 0 -85.5 34.5 t-34.5 85.5z" />
<glyph unicode="&#xec;" horiz-adv-x="468" d="M-92 1321l119 127l307 -287l-117 -127zM125 0v967h217v-967h-217z" />
<glyph unicode="&#xed;" horiz-adv-x="473" d="M127 0v967h217v-967h-217zM127 1161l307 287l119 -127l-309 -287z" />
<glyph unicode="&#xee;" horiz-adv-x="487" d="M-33 1190l201 203h145l203 -203l-127 -129l-100 115l-47 55l-49 -55q-20 -22 -56 -65.5t-41 -49.5zM131 0v967h217v-967h-217z" />
<glyph unicode="&#xef;" horiz-adv-x="485" d="M-68 1255q0 51 35 86t86 35q50 0 85.5 -35t35.5 -86t-35.5 -85.5t-85.5 -34.5q-51 0 -86 34.5t-35 85.5zM135 0v967h217v-967h-217zM313 1255q0 51 35 86t86 35q50 0 85.5 -35t35.5 -86t-35.5 -85.5t-85.5 -34.5q-51 0 -86 34.5t-35 85.5z" />
<glyph unicode="&#xf0;" horiz-adv-x="1140" d="M76 487q0 132 56 242t159.5 176t234.5 66q98 0 165.5 -36t127.5 -106l2 2q-26 81 -86.5 177.5t-159.5 177.5q-11 -19 -32.5 -53.5t-26.5 -42.5l-143 77l61 113q-78 40 -164 63l78 189q95 -29 184 -74l62 115l158 -94l-68 -115q182 -138 276.5 -344.5t94.5 -454.5 q0 -92 -18.5 -177t-58.5 -159t-97 -129t-139 -86.5t-181 -31.5q-142 0 -253.5 68t-171.5 183t-60 254zM289 485q0 -136 75 -226.5t201 -90.5q129 0 203 89t74 226q0 136 -74 225t-205 89q-128 0 -201 -89t-73 -223z" />
<glyph unicode="&#xf1;" horiz-adv-x="1167" d="M137 0v967h211v-66q0 -37 -6 -80q54 76 134.5 122t178.5 46q169 0 272 -113.5t103 -316.5v-559h-213v551q0 124 -62.5 192t-160.5 68q-102 0 -172.5 -71.5t-73.5 -180.5v-559h-211zM244 1235q85 106 211 106q50 0 143 -40.5t137 -40.5q11 0 22 2.5t20.5 6t19 9.5t16 10.5 t13.5 11t11 10t9 8.5l4 5q20 -18 56.5 -53t56.5 -53q-83 -123 -220 -123q-57 0 -150.5 40t-133.5 40q-18 0 -34.5 -4.5t-29.5 -12.5t-21.5 -14.5t-16.5 -14t-9 -8.5z" />
<glyph unicode="&#xf2;" horiz-adv-x="1167" d="M86 485q0 212 144.5 358t353.5 146q136 0 250 -66.5t180.5 -182.5t66.5 -255q0 -140 -66.5 -256t-180.5 -182.5t-250 -66.5q-210 0 -354 146t-144 359zM295 485q0 -138 81.5 -227.5t207.5 -89.5q128 0 207 89t79 228q0 138 -79 227t-207 89q-129 0 -209 -89.5t-80 -226.5 zM375 1321l119 127l307 -287l-117 -127z" />
<glyph unicode="&#xf3;" horiz-adv-x="1167" d="M86 485q0 212 144.5 358t353.5 146q136 0 250 -66.5t180.5 -182.5t66.5 -255q0 -140 -66.5 -256t-180.5 -182.5t-250 -66.5q-210 0 -354 146t-144 359zM295 485q0 -138 81.5 -227.5t207.5 -89.5q128 0 207 89t79 228q0 138 -79 227t-207 89q-129 0 -209 -89.5t-80 -226.5 zM346 1161l307 287l119 -127l-309 -287z" />
<glyph unicode="&#xf4;" horiz-adv-x="1167" d="M86 485q0 212 144.5 358t353.5 146q136 0 250 -66.5t180.5 -182.5t66.5 -255q0 -140 -66.5 -256t-180.5 -182.5t-250 -66.5q-210 0 -354 146t-144 359zM295 485q0 -138 81.5 -227.5t207.5 -89.5q128 0 207 89t79 228q0 138 -79 227t-207 89q-129 0 -209 -89.5t-80 -226.5 zM303 1190l201 203h145l203 -203l-127 -129l-100 115l-47 55l-50 -55q-19 -21 -52.5 -62t-43.5 -53z" />
<glyph unicode="&#xf5;" horiz-adv-x="1167" d="M86 485q0 212 144.5 358t353.5 146q136 0 250 -66.5t180.5 -182.5t66.5 -255q0 -140 -66.5 -256t-180.5 -182.5t-250 -66.5q-210 0 -354 146t-144 359zM236 1235q85 106 210 106q50 0 143.5 -40.5t137.5 -40.5q11 0 22 2.5t20.5 6t19 9.5t16 10.5t13.5 11t11 10t9 8.5 l4 5q20 -18 56.5 -53t55.5 -53q-83 -123 -219 -123q-57 0 -150.5 40t-133.5 40q-18 0 -34.5 -4.5t-29.5 -12.5t-21.5 -14.5t-16.5 -14t-9 -8.5zM295 485q0 -138 81.5 -227.5t207.5 -89.5q128 0 207 89t79 228q0 138 -79 227t-207 89q-129 0 -209 -89.5t-80 -226.5z" />
<glyph unicode="&#xf6;" horiz-adv-x="1167" d="M86 485q0 212 144.5 358t353.5 146q136 0 250 -66.5t180.5 -182.5t66.5 -255q0 -140 -66.5 -256t-180.5 -182.5t-250 -66.5q-210 0 -354 146t-144 359zM266 1255q0 51 35 86t86 35q50 0 85.5 -35t35.5 -86t-35.5 -85.5t-85.5 -34.5q-51 0 -86 34.5t-35 85.5zM295 485 q0 -138 81.5 -227.5t207.5 -89.5q128 0 207 89t79 228q0 138 -79 227t-207 89q-129 0 -209 -89.5t-80 -226.5zM647 1255q0 51 35 86t86 35q50 0 85.5 -35t35.5 -86t-35.5 -85.5t-85.5 -34.5q-51 0 -86 34.5t-35 85.5z" />
<glyph unicode="&#xf7;" horiz-adv-x="874" d="M61 692v162h752v-162h-752zM297 471q0 57 41 98t98 41t98 -41t41 -98t-41 -98t-98 -41t-98 41t-41 98zM297 1077q0 57 41 98.5t98 41.5t98 -41.5t41 -98.5t-41 -98t-98 -41t-98 41t-41 98z" />
<glyph unicode="&#xf8;" horiz-adv-x="1167" d="M86 485q0 212 144.5 358t353.5 146q136 0 250 -66.5t180.5 -182.5t66.5 -255q0 -140 -66.5 -256t-180.5 -182.5t-250 -66.5q-210 0 -354 146t-144 359zM295 485q0 -136 76 -221l309 520q-49 17 -96 17q-129 0 -209 -89.5t-80 -226.5zM471 190q52 -22 113 -22 q128 0 207 89t79 228q0 142 -86 234z" />
<glyph unicode="&#xf9;" d="M115 408v559h213v-551q0 -126 62.5 -193t160.5 -67q96 0 171 73.5t75 188.5v549h211v-967h-211v63q0 22 4 80q-54 -76 -134.5 -121t-177.5 -45q-170 0 -272 113t-102 318zM348 1321l119 127l307 -287l-117 -127z" />
<glyph unicode="&#xfa;" d="M115 408v559h213v-551q0 -126 62.5 -193t160.5 -67q96 0 171 73.5t75 188.5v549h211v-967h-211v63q0 22 4 80q-54 -76 -134.5 -121t-177.5 -45q-170 0 -272 113t-102 318zM319 1171l308 287l118 -127l-309 -287z" />
<glyph unicode="&#xfb;" d="M115 408v559h213v-551q0 -126 62.5 -193t160.5 -67q96 0 171 73.5t75 188.5v549h211v-967h-211v63q0 22 4 80q-54 -76 -134.5 -121t-177.5 -45q-170 0 -272 113t-102 318zM287 1190l200 203h146l203 -203l-127 -129l-101 115l-47 55l-49 -55q-19 -21 -52.5 -62t-43.5 -53 z" />
<glyph unicode="&#xfc;" d="M115 408v559h213v-551q0 -126 62.5 -193t160.5 -67q96 0 171 73.5t75 188.5v549h211v-967h-211v63q0 22 4 80q-54 -76 -134.5 -121t-177.5 -45q-170 0 -272 113t-102 318zM252 1255q0 51 35 86t86 35q50 0 85.5 -35t35.5 -86t-35.5 -85.5t-85.5 -34.5q-51 0 -86 34.5 t-35 85.5zM633 1255q0 51 35 86t86 35q50 0 85 -35t35 -86t-35 -85.5t-85 -34.5q-51 0 -86 34.5t-35 85.5z" />
<glyph unicode="&#xfd;" horiz-adv-x="1007" d="M14 967h228l186 -453q20 -48 38 -96t27.5 -74.5t10.5 -28.5q1 1 11 26t31 74t42 99l196 453h230l-686 -1549h-226l287 648zM270 1161l308 287l118 -127l-309 -287z" />
<glyph unicode="&#xfe;" horiz-adv-x="1155" d="M137 -512v2048h211v-653q0 -5 -1 -16.5t-1 -18.5q54 66 131 102.5t166 36.5q190 0 310 -141.5t120 -358.5q0 -220 -118.5 -363.5t-309.5 -143.5q-92 0 -171 41t-136 114q4 -78 4 -143v-504h-205zM346 483q0 -138 69 -227.5t185 -89.5q114 0 188 90.5t74 228.5t-73.5 226 t-188.5 88q-117 0 -185.5 -86.5t-68.5 -229.5z" />
<glyph unicode="&#xff;" horiz-adv-x="1007" d="M14 967h228l186 -453l76 -199q35 84 84 199l196 453h230l-686 -1549h-226l287 648zM197 1255q0 51 34.5 86t85.5 35q50 0 85.5 -35t35.5 -86t-35.5 -85.5t-85.5 -34.5q-51 0 -85.5 34.5t-34.5 85.5zM578 1255q0 51 34.5 86t85.5 35q50 0 85.5 -35t35.5 -86t-35.5 -85.5 t-85.5 -34.5q-51 0 -85.5 34.5t-34.5 85.5z" />
<glyph unicode="&#x152;" horiz-adv-x="1687" d="M4 717q0 198 98 363t266.5 259.5t368.5 94.5h819v-199h-602v-385h453v-197h-453v-456h602v-197h-819q-202 0 -370 93.5t-265.5 258.5t-97.5 365zM223 717q0 -153 67.5 -271.5t184 -182.5t262.5 -64v1036q-223 0 -368.5 -145.5t-145.5 -372.5z" />
<glyph unicode="&#x153;" horiz-adv-x="1849" d="M66 485q0 215 141 359.5t340 144.5q130 0 233.5 -66.5t161.5 -183.5q53 117 152 183.5t239 66.5q107 0 191 -40t136.5 -109.5t79.5 -160t27 -194.5v-53h-720q9 -132 87.5 -204t198.5 -72q93 0 163.5 39.5t113.5 103.5l143 -111q-78 -103 -174 -155.5t-240 -52.5 q-139 0 -241 66t-154 183q-58 -117 -161 -183t-232 -66q-200 0 -342.5 144t-142.5 361zM274 485q0 -138 81.5 -227.5t207.5 -89.5q129 0 209 89t80 228q0 138 -80 227t-209 89t-209 -89.5t-80 -226.5zM1053 575h501q-6 109 -73 172.5t-168 63.5q-100 0 -170.5 -64 t-89.5 -172z" />
<glyph unicode="&#x178;" horiz-adv-x="1001" d="M-39 1434h250l248 -430q30 -51 43 -91q0 2 5 14.5t15.5 35t22.5 43.5l258 428h252l-445 -723v-711h-217v713zM186 1755q0 51 35 86t86 35q50 0 85.5 -35t35.5 -86t-35.5 -86t-85.5 -35q-51 0 -86 35t-35 86zM567 1755q0 51 35 86t86 35q50 0 85.5 -35t35.5 -86t-35.5 -86 t-85.5 -35q-51 0 -86 35t-35 86z" />
<glyph unicode="&#x2c6;" horiz-adv-x="602" d="M23 1190l200 203h146l202 -203l-127 -129l-100 115l-47 55l-49 -55q-19 -21 -52.5 -62t-43.5 -53z" />
<glyph unicode="&#x2dc;" horiz-adv-x="974" d="M92 1194q85 106 211 106q50 0 143.5 -40.5t137.5 -40.5q11 0 22 2.5t20 6t18.5 9t16.5 10.5t14 11.5t10.5 10.5t8.5 9l4 4q20 -18 57 -53.5t56 -52.5q-83 -123 -219 -123q-57 0 -151 40t-134 40q-18 0 -34.5 -4.5t-29 -12.5t-21 -14.5t-16.5 -14t-9 -8.5z" />
<glyph unicode="&#x2000;" horiz-adv-x="953" />
<glyph unicode="&#x2001;" horiz-adv-x="1907" />
<glyph unicode="&#x2002;" horiz-adv-x="953" />
<glyph unicode="&#x2003;" horiz-adv-x="1907" />
<glyph unicode="&#x2004;" horiz-adv-x="635" />
<glyph unicode="&#x2005;" horiz-adv-x="476" />
<glyph unicode="&#x2006;" horiz-adv-x="317" />
<glyph unicode="&#x2007;" horiz-adv-x="317" />
<glyph unicode="&#x2008;" horiz-adv-x="238" />
<glyph unicode="&#x2009;" horiz-adv-x="381" />
<glyph unicode="&#x200a;" horiz-adv-x="105" />
<glyph unicode="&#x2010;" horiz-adv-x="661" d="M82 487v172h498v-172h-498z" />
<glyph unicode="&#x2011;" horiz-adv-x="661" d="M82 487v172h498v-172h-498z" />
<glyph unicode="&#x2012;" horiz-adv-x="661" d="M82 487v172h498v-172h-498z" />
<glyph unicode="&#x2013;" horiz-adv-x="989" d="M82 692v172h825v-172h-825z" />
<glyph unicode="&#x2014;" horiz-adv-x="1153" d="M82 692v172h989v-172h-989z" />
<glyph unicode="&#x2018;" horiz-adv-x="372" d="M43 1200q0 98 55.5 187.5t149.5 123.5l59 -96q-19 -10 -35 -22t-27 -24t-19.5 -22.5t-14.5 -21.5t-9 -17.5t-6 -14.5t-3 -9q139 -22 139 -133q0 -53 -39.5 -93t-95.5 -40q-76 0 -115 51t-39 131z" />
<glyph unicode="&#x2019;" horiz-adv-x="356" d="M33 1317q0 51 39 91t96 40q75 0 114.5 -52.5t39.5 -133.5q0 -97 -56.5 -187t-148.5 -121l-60 97q19 11 35.5 23t27.5 24t19.5 22.5t14.5 21t9 17t6 14.5t3 9q-139 21 -139 135z" />
<glyph unicode="&#x201a;" horiz-adv-x="505" d="M90 135q0 60 44.5 105t109.5 45q84 0 128 -59t44 -150q0 -106 -64.5 -204t-165.5 -134q-58 93 -67 110q35 19 61.5 44t37 42t19.5 36l9 18q-64 0 -110 41.5t-46 105.5z" />
<glyph unicode="&#x201c;" horiz-adv-x="727" d="M35 1200q0 97 56 187t149 124l61 -96q-39 -23 -71 -61t-46 -70q62 -8 101 -41.5t39 -91.5q0 -54 -39.5 -93.5t-96.5 -39.5q-75 0 -114 51.5t-39 130.5zM403 1200q0 97 56 187t149 124l62 -96q-39 -23 -71 -61t-46 -70q62 -8 100.5 -41.5t38.5 -91.5q0 -54 -39 -93.5 t-96 -39.5q-75 0 -114.5 51.5t-39.5 130.5z" />
<glyph unicode="&#x201d;" horiz-adv-x="727" d="M35 1321q0 52 39 91.5t96 39.5q75 0 114.5 -50.5t39.5 -129.5q0 -98 -56 -189t-149 -125l-62 99q39 21 71 59.5t46 71.5q-61 6 -100 40t-39 93zM403 1321q0 52 39.5 91.5t96.5 39.5q75 0 114 -50.5t39 -129.5q0 -98 -56 -189t-149 -125l-61 99q39 21 71 59.5t46 71.5 q-61 6 -100.5 40.5t-39.5 92.5z" />
<glyph unicode="&#x201e;" horiz-adv-x="620" />
<glyph unicode="&#x2022;" horiz-adv-x="585" d="M61 756q0 93 65.5 158t158.5 65t158 -65t65 -158q0 -92 -65.5 -158t-157.5 -66t-158 66t-66 158zM205 756q0 -31 24 -54.5t56 -23.5t54.5 23.5t22.5 54.5q0 32 -22.5 55t-54.5 23t-56 -23t-24 -55z" />
<glyph unicode="&#x2026;" horiz-adv-x="1402" d="M109 133q0 62 45 107t106 45q63 0 108.5 -45t45.5 -107q0 -63 -45.5 -108t-108.5 -45q-62 0 -106.5 45t-44.5 108zM528 133q0 61 45 106.5t107 45.5q63 0 108.5 -45t45.5 -107q0 -63 -45.5 -108t-108.5 -45q-62 0 -107 45t-45 108zM948 133q0 61 45 106.5t107 45.5 q63 0 108 -45t45 -107q0 -63 -45 -108t-108 -45q-62 0 -107 45t-45 108z" />
<glyph unicode="&#x202f;" horiz-adv-x="381" />
<glyph unicode="&#x2039;" horiz-adv-x="757" d="M51 774l496 496l127 -129l-312 -310l-57 -57l47 -47l322 -324l-127 -129q-55 56 -228.5 230t-267.5 270z" />
<glyph unicode="&#x203a;" horiz-adv-x="753" d="M82 403l369 371l-369 367l127 129l496 -496l-496 -500z" />
<glyph unicode="&#x205f;" horiz-adv-x="476" />
<glyph unicode="&#x20ac;" horiz-adv-x="1492" d="M35 553v139h86v25q0 59 10 127h-96v139h135q81 207 267.5 338t416.5 131q321 0 535 -233l-158 -146q-169 172 -377 172q-140 0 -257.5 -71t-186.5 -191h747v-139h-803q-14 -57 -14 -127v-25h817v-139h-792q50 -162 184 -264.5t305 -102.5q209 0 381 179l164 -142 q-219 -243 -545 -243q-262 0 -460.5 161.5t-254.5 411.5h-104z" />
<glyph unicode="&#x2122;" horiz-adv-x="1210" d="M33 1450v125h377v-125h-119v-500h-135v500h-123zM440 950l97 627h137l102 -338q9 -31 27 -102q0 16 28 102l105 338h135l98 -627h-135l-45 363l-4 51q-4 -4 -14 -49l-113 -365h-108l-95 305q-20 61 -30 111q0 -29 -11 -113l-39 -303h-135z" />
<glyph unicode="&#xe000;" horiz-adv-x="962" d="M0 0v963h963v-963h-963z" />
</font>
</defs>
</svg>
